<svg viewBox="0 0 882 96" fill="currentColor" xmlns="http://www.w3.org/2000/svg"><path d="M0.200012 65.9999V22.3999H19.8C29.3 22.3999 35.4 27.3999 35.4 35.9999C35.4 44.6999 28.6 49.9999 19.5 49.9999H8.70001V65.9999H0.200012ZM19.3 43.0999C23.8 43.0999 26.8 39.9999 26.8 36.0999C26.8 32.3999 23.8 29.5999 19.4 29.5999H8.70001V43.1999H19.3V43.0999Z" fill="currentColor"/><path d="M62.6 65.9999V61.7999C60.2 64.6999 56.7 66.4999 52.5 66.4999C43.7 66.4999 37.1 59.4999 37.1 49.9999C37.1 40.5999 44 33.3999 52.7 33.3999C56.8 33.3999 60.3 35.1999 62.6 37.9999V33.9999H70.5V65.9999H62.6ZM62.6 49.9999C62.6 44.5999 58.7 40.7999 53.9 40.7999C49.1 40.7999 45.2 44.5999 45.2 49.9999C45.2 55.1999 49.1 59.1999 53.9 59.1999C58.7 59.1999 62.6 55.2999 62.6 49.9999Z" fill="currentColor"/><path d="M78.1 77.7V70.7H80.7C82.9 70.7 85 69.6 85.6 66.3C85.8 65.3 85.7 64.8 85.3 63.8L73.5 34H81.8L90.3 56.1L98.6 34H106.7L94.8 64C90.9 73.9 89.8 77.8 80.5 77.8H78.1V77.7Z" fill="currentColor"/><path d="M140.9 65.9999V46.0999C140.9 42.5999 138.5 40.6999 135.3 40.6999C132 40.6999 129.4 42.7999 129.4 46.0999V66.0999H121.3V33.9999H129.2V37.9999C130.4 36.0999 133.3 33.3999 138.1 33.3999C144.9 33.3999 149 37.7999 149 44.5999V65.9999H140.9Z" fill="currentColor"/><path d="M170.7 66.4999C161.2 66.4999 153.9 59.3999 153.9 49.9999C153.9 40.5999 161.1 33.3999 170.7 33.3999C180.2 33.3999 187.5 40.5999 187.5 49.9999C187.4 59.3999 180.1 66.4999 170.7 66.4999ZM179.3 49.9999C179.3 44.7999 175.4 40.8999 170.7 40.8999C166 40.8999 162 44.7999 162 49.9999C162 55.1999 166 59.0999 170.7 59.0999C175.4 59.0999 179.3 55.0999 179.3 49.9999Z" fill="currentColor"/><path d="M219.1 66L212.5 46.2H212.3L205.5 66H198.1L188.6 34H197L203 54.7H203.1L209.9 34H215.6L222.1 54.9H222.2L228.4 34H236.6L226.6 66H219.1Z" fill="currentColor"/><path d="M279.6 66L273 46.2H272.8L266 66H258.6L249.1 34H257.5L263.5 54.7H263.6L270.4 34H276.1L282.6 54.9H282.7L288.9 34H297.1L287.1 66H279.6Z" fill="currentColor"/><path d="M300.5 25.4002C300.5 23.0002 302.6 20.8 305.1 20.8C307.6 20.8 309.7 23.0002 309.7 25.4002C309.7 27.9002 307.6 30 305.1 30C302.6 30 300.5 27.9002 300.5 25.4002ZM301 66V34H309.1V66H301Z" fill="currentColor"/><path d="M326.4 66C319.9 66 317.4 63.2 317.4 56.7001V40.9001H313.2V33.9001H317.4V26.1001H325.5V34.0001H330.6V41.0001H325.5V55.2001C325.5 57.9001 326.3 58.9001 329 58.9001H330.6V66H326.4Z" fill="currentColor"/><path d="M354.7 65.9999V46.0999C354.7 42.5999 352.3 40.6999 349.1 40.6999C345.8 40.6999 343.2 42.7999 343.2 46.0999V66.0999H335.1V22.3999H343.2V37.5999C344.5 35.6999 347.3 33.3999 351.8 33.3999C358.6 33.3999 362.7 37.7999 362.7 44.5999V65.9999H354.7Z" fill="currentColor"/><path d="M874.2 20L859.3 11.5L844.2 2.90002C834.2 -2.79998 821.8 4.40002 821.8 15.9V17.8C821.8 18.9 822.4 19.8 823.3 20.4L830.3 24.4C832.2 25.5 834.7 24.1 834.7 21.9V17.3C834.7 15 837.2 13.6 839.1 14.7L852.9 22.6L866.6 30.5C868.6 31.6 868.6 34.5 866.6 35.6L852.9 43.5L839.1 51.4C837.1 52.5 834.7 51.1 834.7 48.8V46.5C834.7 35 822.2 27.8 812.3 33.5L797.2 42.1L782.3 50.6C772.3 56.4 772.3 70.8 782.3 76.6L797.2 85.1L812.3 93.7C822.3 99.4 834.7 92.2 834.7 80.7V78.8C834.7 77.7 834.1 76.8 833.2 76.2L826.2 72.2C824.3 71.1 821.8 72.5 821.8 74.7V79.3C821.8 81.6 819.3 83 817.4 81.9L803.6 74L789.9 66.1C787.9 65 787.9 62.1 789.9 61L803.6 53.1L817.4 45.2C819.4 44.1 821.8 45.5 821.8 47.8V50.1C821.8 61.6 834.3 68.8 844.2 63.1L859.3 54.5L874.2 46C884.2 40.2 884.2 25.8 874.2 20Z" fill="currentColor"/><path d="M776.6 22.8L741.7 94.8H727.2L740.3 67.9001L719.8 22.8H734.6L747.8 53L762.2 22.8H776.6Z" fill="currentColor"/><path d="M428.3 48.3999C428.3 39.7999 422.1 33.7999 414.4 33.7999C406.7 33.7999 400.5 39.8999 400.5 48.3999C400.5 56.7999 406.7 62.9999 414.4 62.9999C422.1 62.9999 428.3 56.9999 428.3 48.3999ZM428.4 73.8999V67.2999C424.6 71.8999 419 74.7999 412.3 74.7999C398.3 74.7999 387.7 63.5999 387.7 48.3999C387.7 33.3999 398.7 21.8999 412.6 21.8999C419.1 21.8999 424.7 24.7999 428.4 29.2999V22.8999H441V73.9999L428.4 73.8999Z" fill="currentColor"/><path d="M502 62.6C497.6 62.6 496.4 61 496.4 56.7V34H504.5V22.8H496.4V10.4H483.5V22.9H466.9V17.8C466.9 13.5 468.5 11.9 473 11.9H475.8V2H469.6C459 2 454 5.5 454 16.1V22.9H446.8V34H454V74H466.9V34H483.5V59C483.5 69.4 487.5 73.9 497.9 73.9H504.5V62.6H502Z" fill="currentColor"/><path d="M548.2 43.8C547.3 37.2 541.9 33.2 535.5 33.2C529.2 33.2 524 37.1 522.6 43.8H548.2ZM522.6 51.8C523.5 59.4 528.9 63.7 535.8 63.7C541.2 63.7 545.4 61.1 547.9 57.1H561.1C558 67.9 548.3 74.9 535.6 74.9C520.2 74.9 509.3 64.1 509.3 48.6C509.3 33.2 520.7 22 535.9 22C551.1 22 562.2 33.2 562.2 48.6C562.2 49.7 562.1 50.8 561.9 51.9H522.6V51.8Z" fill="currentColor"/><path d="M643.9 48.4002C643.9 40.1002 637.7 33.8002 630 33.8002C622.3 33.8002 616.1 39.9002 616.1 48.4002C616.1 56.8001 622.3 63 630 63C637.6 63 643.9 56.7002 643.9 48.4002ZM603.4 94.8V22.8H616V29.4002C619.8 24.7002 625.4 21.8 632.1 21.8C645.9 21.8 656.7 33.1 656.7 48.2C656.7 63.2 645.7 74.7 631.8 74.7C625.4 74.7 620 72.1001 616.4 67.9001V94.8H603.4Z" fill="currentColor"/><path d="M702 48.3999C702 39.7999 695.8 33.7999 688.1 33.7999C680.4 33.7999 674.2 39.8999 674.2 48.3999C674.2 56.7999 680.4 62.9999 688.1 62.9999C695.8 62.9999 702 56.9999 702 48.3999ZM702.2 73.8999V67.2999C698.4 71.8999 692.8 74.7999 686.1 74.7999C672.1 74.7999 661.5 63.5999 661.5 48.3999C661.5 33.3999 672.5 21.8999 686.4 21.8999C692.9 21.8999 698.5 24.7999 702.2 29.2999V22.8999H714.8V73.9999L702.2 73.8999Z" fill="currentColor"/><path d="M580.8 27.7999C580.8 27.7999 584 21.8999 591.8 21.8999C595.2 21.8999 597.3 23.0999 597.3 23.0999V36.0999C597.3 36.0999 592.6 33.1999 588.2 33.7999C583.9 34.3999 581.1 38.3999 581.1 43.6999V73.8999H568.1V22.7999H580.7L580.8 27.7999Z" fill="currentColor"/></svg>